<svg width="24" height="24" viewBox="0 0 24 24" fill="none" xmlns="http://www.w3.org/2000/svg">
<path d="M5.96905 6.57488L5.30205 3.59766H3.37305" stroke="white" stroke-width="1.5" stroke-linecap="round" stroke-linejoin="round"/>
<path fill-rule="evenodd" clip-rule="evenodd" d="M7.73075 14.7224L5.96875 6.57471H18.6267C19.2637 6.57471 19.7377 7.15725 19.6047 7.77552L18.1027 14.7224C18.0037 15.1799 17.5967 15.5064 17.1247 15.5064H8.70775C8.23675 15.5064 7.82975 15.1799 7.73075 14.7224Z" stroke="white" stroke-width="1.5" stroke-linecap="round" stroke-linejoin="round"/>
<path d="M17.4648 19.104C17.2578 19.104 17.0898 19.2708 17.0918 19.4762C17.0918 19.6816 17.2598 19.8483 17.4668 19.8483C17.6738 19.8483 17.8418 19.6816 17.8418 19.4762C17.8408 19.2708 17.6728 19.104 17.4648 19.104" stroke="white" stroke-width="1.5" stroke-linecap="round" stroke-linejoin="round"/>
<path d="M8.85593 19.104C8.64893 19.104 8.48093 19.2708 8.48293 19.4762C8.48193 19.6816 8.64993 19.8483 8.85693 19.8483C9.06393 19.8483 9.23193 19.6816 9.23193 19.4762C9.23193 19.2708 9.06393 19.104 8.85593 19.104" stroke="white" stroke-width="1.5" stroke-linecap="round" stroke-linejoin="round"/>
</svg>
