<svg width="14" height="14" viewBox="0 0 14 14" fill="none" xmlns="http://www.w3.org/2000/svg">
<path fill-rule="evenodd" clip-rule="evenodd" d="M5.56372 10.1037L2.67885 7.21883C2.56043 7.10042 2.41912 7.06396 2.25491 7.10946C2.0907 7.15496 1.98818 7.25748 1.94735 7.41702C1.90651 7.57656 1.9453 7.72006 2.06372 7.84752L5.56372 11.3475L12.5637 4.34752C12.6457 4.25623 12.6845 4.15138 12.6801 4.03296C12.6757 3.91454 12.6301 3.81202 12.5432 3.7254C12.4562 3.63877 12.3559 3.59546 12.2422 3.59546C12.1284 3.59546 12.0259 3.63644 11.9346 3.7184L5.56372 10.1037Z" fill="#409EFF"/>
<path d="M5.56372 10.1037L5.21017 10.4573C5.304 10.5511 5.4313 10.6038 5.564 10.6037C5.69671 10.6036 5.82394 10.5508 5.91767 10.4569L5.56372 10.1037ZM2.67885 7.21883L3.0324 6.86528L3.0324 6.86528L2.67885 7.21883ZM2.06372 7.84752L1.69741 8.18784C1.70158 8.19233 1.70584 8.19674 1.71017 8.20107L2.06372 7.84752ZM5.56372 11.3475L5.21017 11.7011C5.30394 11.7948 5.43111 11.8475 5.56372 11.8475C5.69633 11.8475 5.82351 11.7948 5.91727 11.7011L5.56372 11.3475ZM12.5637 4.34752L12.9173 4.70107C12.9236 4.69473 12.9298 4.68822 12.9358 4.68154L12.5637 4.34752ZM11.9346 3.7184L11.6006 3.34634C11.5938 3.35245 11.5871 3.35876 11.5806 3.36524L11.9346 3.7184ZM5.91727 9.75016L3.0324 6.86528L2.32529 7.57239L5.21017 10.4573L5.91727 9.75016ZM3.0324 6.86528C2.78385 6.61673 2.45544 6.53505 2.1214 6.62761L2.38842 7.5913C2.39513 7.58944 2.39482 7.5903 2.38856 7.59048C2.38191 7.59068 2.37152 7.59002 2.35914 7.58682C2.34672 7.58362 2.33661 7.57898 2.32966 7.57484C2.32305 7.57089 2.32182 7.56892 2.32529 7.57239L3.0324 6.86528ZM2.1214 6.62761C1.79196 6.7189 1.55007 6.95267 1.46296 7.29305L2.43173 7.541C2.43264 7.53744 2.43223 7.54064 2.4282 7.54801C2.42399 7.55571 2.41742 7.56503 2.40841 7.57403C2.39947 7.58297 2.39117 7.58856 2.38594 7.59147C2.38105 7.59418 2.381 7.59336 2.38842 7.5913L2.1214 6.62761ZM1.46296 7.29305C1.37717 7.62823 1.47108 7.94422 1.69741 8.18784L2.43003 7.5072C2.42299 7.49962 2.42138 7.49638 2.42232 7.498C2.42341 7.49988 2.42619 7.50533 2.42849 7.51382C2.43081 7.52242 2.43168 7.53061 2.43164 7.53704C2.4316 7.5432 2.43075 7.54485 2.43173 7.541L1.46296 7.29305ZM1.71017 8.20107L5.21017 11.7011L5.91727 10.994L2.41727 7.49397L1.71017 8.20107ZM5.91727 11.7011L12.9173 4.70107L12.2102 3.99397L5.21017 10.994L5.91727 11.7011ZM12.9358 4.68154C13.101 4.49754 13.1891 4.26751 13.1798 4.0145L12.1804 4.05142C12.1804 4.05092 12.1804 4.04794 12.1811 4.04305C12.1819 4.0381 12.1833 4.03254 12.1853 4.02692C12.1899 4.0147 12.1946 4.0102 12.1917 4.0135L12.9358 4.68154ZM13.1798 4.0145C13.1705 3.76477 13.0691 3.54367 12.8961 3.37125L12.1902 4.07954C12.1925 4.08179 12.1924 4.08212 12.1912 4.08031C12.1898 4.07844 12.1878 4.07515 12.1858 4.07063C12.1838 4.06608 12.1823 4.06154 12.1814 4.05753C12.1805 4.05358 12.1804 4.05135 12.1804 4.05142L13.1798 4.0145ZM12.8961 3.37125C12.7236 3.19935 12.4993 3.09546 12.2422 3.09546L12.2422 4.09546C12.2337 4.09546 12.2195 4.09346 12.2046 4.087C12.1903 4.08085 12.1858 4.07519 12.1902 4.07954L12.8961 3.37125ZM12.2422 3.09546C11.995 3.09546 11.7758 3.18903 11.6006 3.34634L12.2686 4.09046C12.2754 4.08436 12.2745 4.08689 12.2655 4.09048C12.2614 4.09214 12.2567 4.09351 12.252 4.0944C12.2474 4.09529 12.2439 4.09546 12.2422 4.09546L12.2422 3.09546ZM11.5806 3.36524L5.20977 9.75056L5.91767 10.4569L12.2885 4.07155L11.5806 3.36524Z" fill="#409EFF"/>
</svg>
