<svg width="180" height="180" viewBox="0 0 180 180" fill="none" xmlns="http://www.w3.org/2000/svg">
<path d="M160.356 163.112C132.777 185.629 46.6606 185.629 19.6436 163.112C-7.93609 140.594 -5.12189 44.3315 19.6436 18.9992C44.4091 -6.33307 135.591 -6.33307 160.356 18.9992C185.122 44.3315 187.936 140.595 160.356 163.112Z" fill="#0967C5"/>
<path d="M85.0117 113.4C83.2194 113.4 81.4272 112.611 80.403 111.032L66.0647 92.0953C64.0163 89.4652 64.5285 85.783 67.0889 83.6788C69.6493 81.5747 73.2338 82.1008 75.2822 84.7309L85.0117 97.6187L106.519 68.95C108.568 66.3199 112.152 65.7938 114.713 67.8979C117.273 70.0021 117.785 73.6843 115.737 76.3144L89.6205 111.032C88.3403 112.348 86.8041 113.4 85.0117 113.4Z" fill="white"/>
</svg>
