<svg width="52" height="34" viewBox="0 0 52 34" fill="none" xmlns="http://www.w3.org/2000/svg">
<rect x="0.5" y="0.5" width="51" height="33" rx="7.5" fill="white"/>
<rect x="0.5" y="0.5" width="51" height="33" rx="7.5" stroke="#E4EBF2"/>
<path d="M23.466 10.666C22.1759 10.666 21.0998 11.5822 20.8527 12.7993L19.1993 12.7993C18.9048 12.7993 18.666 13.0381 18.666 13.3327C18.666 13.6272 18.9048 13.866 19.1993 13.866H20.8527C21.0998 15.0832 22.1759 15.9993 23.466 15.9993C24.7561 15.9993 25.8323 15.0832 26.0793 13.866L34.1327 13.866C34.4272 13.866 34.666 13.6272 34.666 13.3327C34.666 13.0381 34.4272 12.7993 34.1327 12.7993L26.0793 12.7993C25.8323 11.5822 24.7561 10.666 23.466 10.666Z" fill="#007AFF"/>
<path d="M29.866 19.1993C28.5759 19.1993 27.4998 20.1155 27.2527 21.3327H19.1993C18.9048 21.3327 18.666 21.5715 18.666 21.866C18.666 22.1606 18.9048 22.3993 19.1993 22.3993H27.2527C27.4998 23.6165 28.5759 24.5327 29.866 24.5327C31.1561 24.5327 32.2323 23.6165 32.4793 22.3993L34.1327 22.3993C34.4272 22.3993 34.666 22.1606 34.666 21.866C34.666 21.5715 34.4272 21.3327 34.1327 21.3327L32.4793 21.3327C32.2323 20.1155 31.1561 19.1993 29.866 19.1993Z" fill="#007AFF"/>
</svg>
