<svg width="24" height="24" viewBox="0 0 24 24" fill="none" xmlns="http://www.w3.org/2000/svg">
<path fill-rule="evenodd" clip-rule="evenodd" d="M12.1671 5.22153C13.1502 4.31959 14.4229 3.79056 15.7602 3.72795L16.0284 3.72168C17.5527 3.72168 19.0132 4.3288 20.0979 5.42291L20.2807 5.61887C22.3094 7.89805 22.2302 11.354 20.0823 13.5444L14.6899 18.9782C13.9804 19.6936 13.0112 20.0964 11.9998 20.0964C10.9884 20.0964 10.0193 19.6936 9.30992 18.9784L3.91412 13.5411C1.69503 11.278 1.69503 7.67292 3.93137 5.3928L4.13608 5.19751C5.18336 4.24874 6.55111 3.72168 7.97113 3.72168C9.48356 3.72168 10.9332 4.31937 12.0001 5.38167L12.1671 5.22153ZM19.0141 6.45128C18.2267 5.65748 17.1513 5.21045 16.029 5.21045C14.9067 5.21045 13.8313 5.65747 13.0438 6.45142L12.5347 6.96441C12.2409 7.26046 11.7598 7.26046 11.466 6.9644L10.9567 6.4512C10.1694 5.65744 9.09404 5.21045 7.97172 5.21045C6.92615 5.21045 5.91904 5.59854 5.16258 6.28348L4.98973 6.44815C3.33728 8.13336 3.33728 10.8179 4.98658 12.4999L10.3794 17.9341C10.8069 18.3652 11.3909 18.6079 12.0004 18.6079C12.6099 18.6079 13.1939 18.3652 13.6216 17.934L19.0111 12.5032C20.608 10.8746 20.667 8.30087 19.1693 6.61787L19.0141 6.45128Z" fill="white"/>
</svg>
