<svg width="18" height="18" viewBox="0 0 18 18" fill="none" xmlns="http://www.w3.org/2000/svg">
<path fill-rule="evenodd" clip-rule="evenodd" d="M9.0216 1.50004C5.56483 1.48829 2.74132 4.23851 2.62847 7.68102L2.625 7.89469C2.68246 9.58205 3.25655 11.1905 4.26771 12.5157L4.50519 12.8256C5.47035 14.0528 6.61734 15.13 7.9052 16.0178L8.21529 16.2266L8.26053 16.2621C8.70195 16.5793 9.29794 16.5793 9.73936 16.2621L9.77702 16.2311C10.7989 15.5684 11.7413 14.7897 12.5854 13.9105C14.3015 12.0939 15.3358 10.0584 15.3748 7.99124L15.3749 7.91448C15.3866 4.44894 12.6449 1.61675 9.21297 1.50352L9.0216 1.50004ZM9.01774 2.63809C11.8516 2.64777 14.1525 4.91205 14.2379 7.73182L14.2404 7.98045C14.2075 9.71356 13.3001 11.4993 11.765 13.1243C10.9822 13.9397 10.1046 14.6644 9.15267 15.2808L9.08923 15.3285C9.03797 15.373 8.96193 15.373 8.91066 15.3285L8.849 15.282C7.43098 14.3562 6.18643 13.1873 5.17227 11.8288C4.35539 10.7581 3.87132 9.47803 3.77388 8.14265L3.75957 7.87489C3.76919 5.03415 6.02649 2.72622 8.83759 2.64052L9.01774 2.63809ZM8.99995 5.55097C7.65865 5.55097 6.57132 6.64166 6.57132 7.98709C6.57132 9.33253 7.65865 10.4232 8.99995 10.4232C10.3412 10.4232 11.4286 9.33253 11.4286 7.98709C11.4286 6.64166 10.3412 5.55097 8.99995 5.55097ZM8.99995 6.68904C9.71464 6.68904 10.294 7.2702 10.294 7.98709C10.294 8.70399 9.71464 9.28515 8.99995 9.28515C8.28525 9.28515 7.70588 8.70399 7.70588 7.98709C7.70588 7.2702 8.28525 6.68904 8.99995 6.68904Z" fill="black"/>
</svg>
