<svg width="112" height="31" viewBox="0 0 112 31" fill="none" xmlns="http://www.w3.org/2000/svg">
<path d="M49.1156 21.2903C49.6679 21.2903 50.1156 20.8426 50.1156 20.2903V9.62208C50.1156 9.0698 49.6679 8.62208 49.1156 8.62208H48.1507C47.5984 8.62208 47.1507 9.0698 47.1507 9.62208V13.6483C47.1507 14.5887 45.9706 15.0091 45.3759 14.2806L41.0576 8.98976C40.8677 8.75708 40.5832 8.62208 40.2829 8.62208H39.2188C38.6665 8.62208 38.2188 9.0698 38.2188 9.62208V20.2903C38.2188 20.8426 38.6665 21.2903 39.2187 21.2903H40.1652C40.7175 21.2903 41.1652 20.8426 41.1652 20.2903V16.2578C41.1652 15.3182 42.3438 14.8973 42.939 15.6244L47.2768 20.9237C47.4667 21.1558 47.7508 21.2903 48.0506 21.2903H49.1156Z" fill="#111111"/>
<path d="M73.7923 20.682C73.9493 21.0509 74.3115 21.2903 74.7124 21.2903H76.04C76.4409 21.2903 76.8031 21.0509 76.9601 20.682L81.5013 10.0137C81.782 9.35415 81.298 8.62208 80.5812 8.62208H79.5198C79.1149 8.62208 78.75 8.86625 78.5955 9.24052L76.2888 14.8283C75.9488 15.6521 74.7824 15.6532 74.4409 14.8301L72.1205 9.23878C71.9656 8.86544 71.6011 8.62208 71.1969 8.62208H70.1712C69.4544 8.62208 68.9704 9.35415 69.2511 10.0137L73.7923 20.682Z" fill="#111111"/>
<path d="M83.6961 20.6902C83.5371 21.0547 83.1772 21.2903 82.7795 21.2903H81.8973C81.1736 21.2903 80.6895 20.5453 80.9836 19.884L85.7276 9.21576C85.8881 8.85473 86.2462 8.62208 86.6413 8.62208H88.0103C88.4054 8.62208 88.7635 8.85473 88.9241 9.21576L93.6681 19.884C93.9622 20.5453 93.4781 21.2903 92.7544 21.2903H91.872C91.4744 21.2903 91.1145 21.0547 90.9555 20.6903L88.9751 16.1517L88.2381 14.4533C87.8906 13.6525 86.7558 13.6502 86.405 14.4495L85.658 16.1517L84.6018 18.6139L83.6961 20.6902Z" fill="#111111"/>
<path d="M101.119 21.5044C103.861 21.5044 105.826 19.8986 105.826 17.5969C105.844 15.6877 104.603 14.4744 102.694 13.8143L101.767 13.4931C100.359 13.0114 99.729 12.7259 99.729 12.03C99.729 11.3698 100.526 11.0665 101.323 11.0665C101.818 11.0665 102.314 11.1862 102.763 11.4331C103.276 11.7156 103.955 11.7598 104.366 11.3415L104.847 10.8516C105.226 10.4648 105.235 9.83615 104.803 9.50895C103.75 8.71188 102.591 8.40796 101.286 8.40796C98.6728 8.40796 96.7455 9.85321 96.7455 12.3155C96.7455 14.0462 97.913 15.2774 100.063 15.9732L100.989 16.2766C102.323 16.7048 102.824 17.1508 102.824 17.7932C102.824 18.4177 102.212 18.8459 101.23 18.8459C100.575 18.8459 99.8521 18.5988 99.2523 18.1549C98.7884 17.8116 98.1271 17.7086 97.6793 18.0727L96.9804 18.6408C96.5681 18.9759 96.4838 19.584 96.8701 19.9488C97.9197 20.9399 99.4008 21.5044 101.119 21.5044Z" fill="#111111"/>
<path d="M56.4717 15.0514C56.4717 17.1033 58.158 18.8518 60.3076 18.8518C60.5 18.8518 60.6887 18.8376 60.8729 18.8102C61.2348 18.7563 61.6148 18.835 61.8784 19.0888L62.6344 19.8168C63.1222 20.2864 63.0073 21.0951 62.36 21.2936C61.7118 21.4923 61.0222 21.5996 60.3076 21.5996C56.5458 21.5996 53.5068 18.6556 53.5068 15.0514C53.5068 11.4472 56.5458 8.50312 60.3076 8.50312C64.0509 8.50312 67.1085 11.4472 67.1085 15.0514C67.1085 16.0192 66.888 16.9394 66.4929 17.7678C66.2307 18.3178 65.5122 18.3822 65.0733 17.9595L64.2717 17.1877C63.9601 16.8877 63.8903 16.4241 64.0009 16.0059C64.0819 15.6994 64.125 15.3793 64.125 15.0514C64.125 12.9995 62.4387 11.2509 60.3076 11.2509C58.158 11.2509 56.4717 12.9995 56.4717 15.0514Z" fill="#111111"/>
<circle cx="109.95" cy="19.9502" r="1.64895" fill="#00EEEE"/>
<path fill-rule="evenodd" clip-rule="evenodd" d="M5 0C2.23858 0 0 2.23858 0 5.00001V25.5744C0 28.3358 2.23858 30.5744 5.00001 30.5744H25.5744C28.3358 30.5744 30.5744 28.3358 30.5744 25.5744V5C30.5744 2.23858 28.3358 0 25.5744 0H5ZM12.2302 9.93719C12.7256 9.92578 13.2246 10.1145 13.6026 10.5033L13.8883 10.7971C16.2443 13.22 20.1356 13.22 22.4916 10.7971L22.7772 10.5033C23.5118 9.74784 24.7028 9.74784 25.4374 10.5033C26.172 11.2588 26.172 12.4836 25.4374 13.239L19.7168 19.1221C19.5729 19.2701 19.4154 19.4063 19.2478 19.5266C18.5143 20.0533 17.4972 19.98 16.8426 19.3068L16.5318 18.9872C14.1759 16.5643 10.2846 16.5643 7.92858 18.9872L7.7974 19.1221C7.06281 19.8776 5.8718 19.8776 5.13721 19.1221C4.40262 18.3667 4.40262 17.1418 5.13721 16.3864L10.8578 10.5033C11.2358 10.1145 11.7348 9.92581 12.2302 9.93719Z" fill="#111111"/>
</svg>
